<?xml version="1.0" encoding="utf-8"?><svg xml:space="preserve" viewBox="0 0 100 100" y="0" x="0" xmlns="http://www.w3.org/2000/svg" id="圖層_1" version="1.1" width="36px" height="36px" xmlns:xlink="http://www.w3.org/1999/xlink" style="width:100%;height:100%;background-size:initial;background-repeat-y:initial;background-repeat-x:initial;background-position-y:initial;background-position-x:initial;background-origin:initial;background-color:initial;background-clip:initial;background-attachment:initial;animation-play-state:paused" ><g class="ldl-scale" style="transform-origin:50% 50%;transform:rotate(0deg) scale(0.8, 0.8);animation-play-state:paused" ><path fill="#333" d="M78.139 39.6a30.056 30.056 0 0 0-.887-2.143c-.601-1.304-.373-2.836.611-3.882l3.441-3.654c1.169-1.242 1.294-3.163.245-4.507a40.237 40.237 0 0 0-6.962-6.962c-1.344-1.049-3.266-.924-4.507.245l-3.654 3.441c-1.045.984-2.578 1.211-3.882.611-.7-.322-1.415-.619-2.143-.887-1.346-.497-2.268-1.742-2.311-3.176l-.151-5.022c-.051-1.703-1.319-3.15-3.01-3.359a39.908 39.908 0 0 0-9.856-.001c-1.691.209-2.959 1.656-3.01 3.359l-.151 5.022c-.043 1.434-.965 2.679-2.311 3.176-.728.269-1.443.565-2.143.887-1.304.601-2.836.373-3.882-.611l-3.654-3.441c-1.242-1.169-3.163-1.294-4.507-.245a40.237 40.237 0 0 0-6.962 6.962c-1.049 1.344-.924 3.266.245 4.507l3.441 3.654c.984 1.045 1.211 2.578.611 3.882-.322.7-.619 1.415-.887 2.143-.497 1.346-1.742 2.268-3.176 2.311l-5.022.151c-1.703.051-3.15 1.319-3.359 3.01a40.048 40.048 0 0 0-.002 9.856c.209 1.691 1.656 2.959 3.359 3.01l5.022.151c1.434.043 2.679.965 3.176 2.311.269.728.565 1.443.887 2.143.601 1.304.373 2.836-.611 3.882l-3.441 3.654c-1.169 1.242-1.294 3.163-.245 4.507a40.237 40.237 0 0 0 6.962 6.962c1.344 1.049 3.266.924 4.507-.245l3.654-3.441c1.045-.984 2.578-1.211 3.882-.611.7.322 1.415.619 2.143.887 1.346.497 2.268 1.742 2.311 3.176l.151 5.022c.051 1.703 1.319 3.15 3.01 3.359a40.048 40.048 0 0 0 9.856.002c1.691-.209 2.959-1.656 3.01-3.359l.151-5.022c.043-1.434.965-2.679 2.311-3.176a30.056 30.056 0 0 0 2.143-.887c1.304-.601 2.836-.373 3.882.611l3.654 3.441c1.242 1.169 3.163 1.294 4.507.245a40.237 40.237 0 0 0 6.962-6.962c1.049-1.344.924-3.266-.245-4.507l-3.441-3.654c-.984-1.045-1.211-2.578-.611-3.882.322-.7.619-1.415.887-2.143.497-1.346 1.742-2.268 3.176-2.311l5.022-.151c1.703-.051 3.15-1.319 3.359-3.01a40.048 40.048 0 0 0 .002-9.856c-.209-1.691-1.656-2.959-3.359-3.01l-5.022-.151c-1.434-.043-2.679-.966-3.176-2.312zM63.96 38.476l-5.717 3.301A3.494 3.494 0 0 1 53 38.75v-6.604c0-2.438 2.43-4.116 4.72-3.28a22.454 22.454 0 0 1 6.802 3.955c1.827 1.545 1.509 4.459-.562 5.655zM48.253 53.027a3.494 3.494 0 0 1 0-6.054A3.496 3.496 0 0 1 53.495 50a3.495 3.495 0 0 1-5.242 3.027zM47 32.146v6.604a3.497 3.497 0 0 1-5.242 3.027l-5.717-3.301c-2.071-1.196-2.389-4.11-.563-5.655a22.466 22.466 0 0 1 6.802-3.955c2.29-.836 4.72.842 4.72 3.28zM27.5 50c0-1.363.122-2.697.355-3.992.423-2.354 3.107-3.535 5.179-2.34l5.724 3.305a3.496 3.496 0 0 1 0 6.054l-5.724 3.305c-2.071 1.196-4.755.015-5.179-2.34A22.529 22.529 0 0 1 27.5 50zm8.54 11.524l5.717-3.301A3.494 3.494 0 0 1 47 61.25v6.604c0 2.438-2.43 4.116-4.72 3.28a22.475 22.475 0 0 1-6.802-3.955c-1.826-1.545-1.509-4.459.562-5.655zM53 67.854V61.25a3.497 3.497 0 0 1 5.242-3.027l5.717 3.301c2.071 1.196 2.389 4.11.563 5.655a22.466 22.466 0 0 1-6.802 3.955c-2.29.836-4.72-.842-4.72-3.28zm13.966-11.522l-5.724-3.305a3.496 3.496 0 0 1 0-6.054l5.724-3.305c2.071-1.196 4.755-.015 5.179 2.34.233 1.295.355 2.629.355 3.992s-.122 2.697-.355 3.992c-.423 2.354-3.107 3.535-5.179 2.34z" style="fill:rgb(221, 221, 221);animation-play-state:paused" ></path>
<metadata xmlns:d="https://loading.io/stock/" style="animation-play-state:paused" ><d:name style="animation-play-state:paused" >gear</d:name>
<d:tags style="animation-play-state:paused" >setup,component,part,assembly,gear,edit,gear,gear</d:tags>
<d:license style="animation-play-state:paused" >by</d:license>
<d:slug style="animation-play-state:paused" >ly51ga</d:slug></metadata></g><!-- generated by https://loading.io/ --></svg>